Savages (2012)

Laguna Beach entrepreneurs Ben and Chon run a lucrative, homegrown industry - raising some of the best marijuana ever developed. They also share a one-of-a-kind love with the extraordinary beauty Ophelia. Life is idyllic in their Southern California townΓÇªuntil the Mexican Baja Cartel decides to move in and demands that the trio partners with them. When the merciless head of the BC, Elena, and her brutal enforcer, Lado, underestimate the unbreakable bond among these three friends, Ben and Chon - with the reluctant, slippery assistance of a dirty DEA agent - wage a seemingly unwinnable war against the cartel. And so begins a series of increasingly vicious ploys and maneuvers in a high stakes, savage battle of wills. 







General
Complete name                  : C:UsersServer 26Desktop Savages (2012) 1080p BRRip x264 AAC-26kSavages (2012) 1080p BRRip x264 AAC-26k.mp4
Format                         : MPEG-4
Format profile                 : Base Media / Version 2
Codec ID                       : mp42
File size                      : 5.15 GiB
Duration                       : 2h 21mn
Overall bit rate mode          : Variable
Overall bit rate               : 5 221 Kbps
Encoded by                     : Pirate @26k

Video
ID                             : 2
Format                         : AVC
Format/Info                    : Advanced Video Codec
Format profile                 : High@L4.0
Format settings, CABAC         : Yes
Format settings, ReFrames      : 2 frames
Codec ID                       : avc1
Codec ID/Info                  : Advanced Video Coding
Duration                       : 2h 21mn
Bit rate mode                  : Constant
Bit rate                       : 4 500 Kbps
Width                          : 1 920 pixels
Height                         : 800 pixels
Display aspect ratio           : 2.40:1
Frame rate mode                : Constant
Frame rate                     : 23.976 fps
Color space                    : YUV
Chroma subsampling             : 4:2:0
Bit depth                      : 8 bits
Scan type                      : Progressive
Bits/(Pixel*Frame)             : 0.122
Stream size                    : 4.44 GiB (86%)

Audio
ID                             : 1
Format                         : AAC
Format/Info                    : Advanced Audio Codec
Format profile                 : LC
Codec ID                       : 40
Duration                       : 2h 21mn
Bit rate mode                  : Variable
Bit rate                       : 720 Kbps
Maximum bit rate               : 1 728 Kbps
Channel(s)                     : 6 channels
Channel positions              : Front: L C R, Side: L R, LFE
Sampling rate                  : 48.0 KHz
Compression mode               : Lossy
Delay relative to video        : 42ms
Stream size                    : 727 MiB (14%)

